<svg width="128" height="128" viewBox="0 0 128 128" xmlns="http://www.w3.org/2000/svg">
  <defs>
    <linearGradient id="gradient" x1="0%" y1="0%" x2="100%" y2="100%">
      <stop offset="0%" style="stop-color:#667eea;stop-opacity:1" />
      <stop offset="100%" style="stop-color:#764ba2;stop-opacity:1" />
    </linearGradient>
  </defs>
  
  <!-- Background -->
  <rect x="0" y="0" width="128" height="128" rx="24" fill="url(#gradient)"/>
  
  <!-- Heart Icon -->
  <path d="M64 108 C64 108 48 88 48 72 C48 56 56 48 64 48 C72 48 80 56 80 72 C80 88 64 108 64 108 Z" 
        fill="white" 
        transform="translate(0, -4)"/>
  
  <!-- Shopping Bag Icon -->
  <path d="M44 56 L84 56 L84 64 C84 68 80 72 76 72 L52 72 C48 72 44 68 44 64 Z" 
        fill="white" 
        opacity="0.3"/>
  <path d="M52 72 L76 72 L76 88 C76 92 72 96 64 96 L56 96 C52 96 48 92 48 88 L48 72" 
        fill="white" 
        opacity="0.5"/>
  
  <!-- Heart Outline -->
  <path d="M64 108 C64 108 48 88 48 72 C48 56 56 48 64 48 C72 48 80 56 80 72 C80 88 64 108 64 108 Z" 
        fill="none" 
        stroke="white" 
        stroke-width="3"
        transform="translate(0, -4)"/>
</svg>
